<?xml version="1.0" standalone="no"?>
<!DOCTYPE svg PUBLIC "-//W3C//DTD SVG 20010904//EN"
 "http://www.w3.org/TR/2001/REC-SVG-20010904/DTD/svg10.dtd">
<svg version="1.0" xmlns="http://www.w3.org/2000/svg"
 width="170.000000pt" height="170.000000pt" viewBox="0 0 170.000000 170.000000"
 preserveAspectRatio="xMidYMid meet">
<metadata>
Created by potrace 1.11, written by Peter Selinger 2001-2013
</metadata>
<g transform="translate(0.000000,170.000000) scale(0.100000,-0.100000)"
fill="#000000" stroke="none">
<path d="M832 1613 c-26 -10 -51 -103 -28 -103 6 0 4 -5 -4 -10 -8 -5 -10 -10
-5 -10 17 0 17 -116 0 -156 -8 -21 -18 -34 -22 -31 -3 4 -19 -3 -34 -14 -16
-11 -29 -18 -29 -14 0 3 -20 -8 -44 -25 -25 -16 -50 -30 -56 -30 -6 0 -9 -4
-6 -9 3 -5 -1 -11 -9 -15 -14 -5 -46 -70 -45 -89 1 -12 -70 -67 -86 -67 -8 0
-14 -5 -14 -11 0 -6 -7 -9 -15 -5 -8 3 -15 1 -15 -4 0 -6 -7 -10 -15 -10 -7 0
-18 -8 -24 -17 -5 -10 -13 -17 -18 -16 -4 1 -24 -8 -43 -20 -19 -12 -43 -25
-52 -29 -19 -8 -24 -43 -8 -53 6 -4 8 -11 5 -16 -4 -5 -2 -9 4 -9 6 0 21 -10
34 -23 36 -34 66 -57 75 -57 5 0 26 -9 48 -19 30 -15 57 -19 105 -16 35 1 66
4 69 5 3 1 17 2 33 2 15 1 27 5 27 11 0 6 3 8 6 4 4 -3 22 0 40 8 19 8 34 12
34 9 0 -2 14 3 31 12 48 24 67 25 74 3 4 -10 11 -19 16 -19 5 0 9 -7 9 -15 0
-8 5 -15 11 -15 6 0 8 -7 5 -16 -3 -8 -2 -12 4 -9 6 3 10 2 10 -4 0 -5 5 -22
12 -38 6 -15 12 -31 12 -35 1 -3 4 -9 7 -12 3 -3 4 -61 2 -128 -6 -159 -7
-178 -13 -178 -5 0 -6 -6 -13 -152 -6 -131 8 -133 86 -13 33 49 68 100 80 113
11 12 17 22 13 22 -4 0 -1 7 8 15 8 8 23 25 33 38 20 25 103 92 103 83 0 -3 8
2 19 12 10 9 34 28 52 42 52 38 119 108 119 124 0 8 7 17 16 20 8 3 12 11 9
16 -4 6 -2 17 4 24 23 28 -8 122 -70 213 -16 23 -29 47 -29 53 0 6 -4 9 -9 6
-5 -3 -12 5 -15 18 -3 14 -12 31 -19 38 -6 7 -32 43 -56 78 -25 36 -48 67 -53
68 -4 2 -8 8 -8 13 0 15 -73 79 -89 79 -8 0 -12 3 -8 6 7 7 -17 34 -31 34 -5
0 -15 14 -22 30 -7 17 -17 30 -22 30 -5 0 -7 4 -4 8 3 5 -8 23 -24 40 -16 18
-27 32 -26 32 2 0 -13 18 -33 39 -50 55 -63 71 -55 71 3 0 1 7 -6 15 -7 8 -10
22 -6 30 3 9 2 13 -4 10 -6 -3 -10 -2 -10 4 0 5 5 13 10 16 6 4 8 11 5 16 -7
10 -13 10 -33 2z"/>
<path d="M366 643 c-3 -4 -21 -6 -39 -5 l-34 1 0 -212 0 -213 29 4 29 4 -3 74
c-2 41 0 74 4 74 4 0 5 6 2 14 -4 10 2 14 25 12 17 -1 32 -4 34 -7 15 -17 77
-121 77 -129 0 -6 4 -10 8 -10 5 0 14 -10 20 -23 6 -12 11 -16 11 -8 1 11 4
11 17 0 13 -10 17 -10 24 1 9 14 -3 44 -27 68 -7 7 -13 19 -13 27 0 7 -3 15
-7 17 -5 2 -19 18 -32 37 -13 19 -17 30 -10 26 12 -8 12 -6 0 8 -13 17 -6 23
22 18 4 0 7 3 7 8 0 5 7 16 15 24 16 17 29 117 14 117 -5 0 -9 6 -9 14 0 21
-46 47 -93 52 -23 3 -47 6 -54 9 -6 2 -14 1 -17 -2z m76 -62 c4 -1 16 -10 27
-22 22 -23 19 -63 -5 -90 -20 -23 -119 -25 -110 -3 3 8 0 14 -7 15 -9 0 -9 2
0 5 8 4 9 14 3 35 -5 18 -5 29 1 29 6 0 7 5 3 11 -13 22 16 29 88 20z"/>
<path d="M673 634 c-21 -8 -39 -14 -41 -14 -2 0 0 -4 3 -10 3 -5 2 -10 -3 -10
-10 0 -22 -32 -26 -67 -1 -13 1 -23 4 -23 3 0 7 -10 7 -22 1 -13 7 -24 13 -26
5 -2 8 -8 4 -13 -3 -5 -2 -9 3 -8 14 2 53 -13 53 -20 0 -4 15 -13 34 -20 18
-8 40 -25 49 -40 13 -22 13 -30 2 -56 -7 -16 -14 -25 -14 -20 -1 6 -5 4 -10
-4 -8 -12 -27 -14 -88 -9 -7 1 -13 5 -13 10 0 15 -21 8 -27 -9 -4 -10 -11 -21
-17 -25 -6 -4 -2 -10 9 -13 11 -4 29 -11 40 -15 31 -14 97 -6 133 15 27 17 40
34 48 68 1 4 2 8 4 10 7 8 5 47 -2 47 -5 0 -7 4 -3 9 7 13 -62 84 -75 76 -5
-3 -10 -2 -10 4 0 5 -9 13 -21 16 -87 28 -74 148 14 124 15 -4 27 -5 27 -2 0
3 6 0 14 -6 12 -10 17 -8 25 8 17 31 13 39 -20 46 -56 12 -77 12 -116 -1z"/>
</g>
</svg>
